<mxfile host="65bd71144e">
    <diagram id="WD0VwwUWyNbdNrmheaur" name="workflow-api">
        <mxGraphModel dx="1108" dy="587" grid="1" gridSize="10" guides="1" tooltips="1" connect="1" arrows="1" fold="1" page="1" pageScale="1" pageWidth="850" pageHeight="1100" math="0" shadow="0">
            <root>
                <mxCell id="0"/>
                <mxCell id="1" parent="0"/>
                <mxCell id="2" value="WorkflowBackend" style="rounded=1;whiteSpace=wrap;html=1;labelPosition=center;verticalLabelPosition=top;align=center;verticalAlign=bottom;" parent="1" vertex="1">
                    <mxGeometry x="240" y="280" width="160" height="160" as="geometry"/>
                </mxCell>
                <mxCell id="3" value="k8sWorkflowBackend" style="rounded=1;whiteSpace=wrap;html=1;" parent="1" vertex="1">
                    <mxGeometry x="255" y="300" width="130" height="40" as="geometry"/>
                </mxCell>
                <mxCell id="5" value="service_api" style="rounded=1;whiteSpace=wrap;html=1;fillColor=#dae8fc;strokeColor=#6c8ebf;" parent="1" vertex="1">
                    <mxGeometry x="440" y="300" width="120" height="40" as="geometry"/>
                </mxCell>
                <mxCell id="6" value="S3StorageBackend" style="rounded=1;whiteSpace=wrap;html=1;fillColor=#f8cecc;strokeColor=#b85450;" parent="1" vertex="1">
                    <mxGeometry x="440" y="365" width="120" height="40" as="geometry"/>
                </mxCell>
                <mxCell id="7" value="..." style="rounded=1;whiteSpace=wrap;html=1;" parent="1" vertex="1">
                    <mxGeometry x="255" y="360" width="130" height="50" as="geometry"/>
                </mxCell>
                <mxCell id="8" value="K8sJob (Pod)" style="rounded=1;whiteSpace=wrap;html=1;labelPosition=center;verticalLabelPosition=top;align=center;verticalAlign=bottom;" parent="1" vertex="1">
                    <mxGeometry x="60" y="280" width="130" height="160" as="geometry"/>
                </mxCell>
                <mxCell id="11" value="k8sWorkflowBackend" style="rounded=1;whiteSpace=wrap;html=1;fillColor=#dae8fc;strokeColor=#6c8ebf;" parent="1" vertex="1">
                    <mxGeometry x="255" y="300" width="130" height="40" as="geometry"/>
                </mxCell>
                <mxCell id="12" value="worker" style="rounded=1;whiteSpace=wrap;html=1;fillColor=#ffe6cc;strokeColor=#d79b00;" parent="1" vertex="1">
                    <mxGeometry x="77.5" y="340" width="95" height="40" as="geometry"/>
                </mxCell>
                <mxCell id="13" value="data-side-car" style="rounded=1;whiteSpace=wrap;html=1;fillColor=#dae8fc;strokeColor=#6c8ebf;" parent="1" vertex="1">
                    <mxGeometry x="77.5" y="390" width="95" height="40" as="geometry"/>
                </mxCell>
                <mxCell id="14" value="init" style="rounded=1;whiteSpace=wrap;html=1;fillColor=#dae8fc;strokeColor=#6c8ebf;" parent="1" vertex="1">
                    <mxGeometry x="77.5" y="290" width="95" height="40" as="geometry"/>
                </mxCell>
                <mxCell id="15" value="Traefik" style="rounded=1;whiteSpace=wrap;html=1;labelPosition=center;verticalLabelPosition=top;align=center;verticalAlign=bottom;" vertex="1" parent="1">
                    <mxGeometry x="610" y="280" width="160" height="160" as="geometry"/>
                </mxCell>
                <mxCell id="19" style="edgeStyle=none;html=1;entryX=1;entryY=0.5;entryDx=0;entryDy=0;" edge="1" parent="1" source="16" target="5">
                    <mxGeometry relative="1" as="geometry"/>
                </mxCell>
                <mxCell id="16" value="/services" style="rounded=0;whiteSpace=wrap;html=1;fillColor=#dae8fc;strokeColor=#6c8ebf;" vertex="1" parent="1">
                    <mxGeometry x="635" y="305" width="110" height="30" as="geometry"/>
                </mxCell>
                <mxCell id="18" style="edgeStyle=none;html=1;entryX=1;entryY=0.5;entryDx=0;entryDy=0;" edge="1" parent="1" source="17" target="6">
                    <mxGeometry relative="1" as="geometry"/>
                </mxCell>
                <mxCell id="17" value="/storage" style="rounded=0;whiteSpace=wrap;html=1;fillColor=#dae8fc;strokeColor=#6c8ebf;" vertex="1" parent="1">
                    <mxGeometry x="635" y="350" width="110" height="30" as="geometry"/>
                </mxCell>
                <mxCell id="21" style="edgeStyle=none;html=1;entryX=0;entryY=0.5;entryDx=0;entryDy=0;rounded=0;" edge="1" parent="1" source="20" target="12">
                    <mxGeometry relative="1" as="geometry">
                        <Array as="points">
                            <mxPoint x="690" y="480"/>
                            <mxPoint x="40" y="480"/>
                            <mxPoint x="40" y="360"/>
                        </Array>
                    </mxGeometry>
                </mxCell>
                <mxCell id="20" value="/a" style="rounded=0;whiteSpace=wrap;html=1;fillColor=#dae8fc;strokeColor=#6c8ebf;" vertex="1" parent="1">
                    <mxGeometry x="635" y="395" width="110" height="30" as="geometry"/>
                </mxCell>
            </root>
        </mxGraphModel>
    </diagram>
    <diagram id="7dSh2thu9pI6CcxfnZRA" name="K8sJob(Pod)">
        <mxGraphModel dx="1087" dy="417" grid="1" gridSize="10" guides="1" tooltips="1" connect="1" arrows="1" fold="1" page="1" pageScale="1" pageWidth="850" pageHeight="1100" math="0" shadow="0">
            <root>
                <mxCell id="0"/>
                <mxCell id="1" parent="0"/>
                <mxCell id="nlV8sNuJRkAt_AXIt324-1" value="K8sJob (Pod)" style="rounded=1;whiteSpace=wrap;html=1;labelPosition=center;verticalLabelPosition=top;align=center;verticalAlign=bottom;" parent="1" vertex="1">
                    <mxGeometry x="295" y="200" width="130" height="160" as="geometry"/>
                </mxCell>
                <mxCell id="nlV8sNuJRkAt_AXIt324-2" value="carla" style="rounded=1;whiteSpace=wrap;html=1;fillColor=#ffe6cc;strokeColor=#d79b00;" parent="1" vertex="1">
                    <mxGeometry x="312.5" y="260" width="95" height="40" as="geometry"/>
                </mxCell>
                <mxCell id="nlV8sNuJRkAt_AXIt324-3" value="data-side-car" style="rounded=1;whiteSpace=wrap;html=1;fillColor=#dae8fc;strokeColor=#6c8ebf;" parent="1" vertex="1">
                    <mxGeometry x="312.5" y="310" width="95" height="40" as="geometry"/>
                </mxCell>
                <mxCell id="nlV8sNuJRkAt_AXIt324-4" value="init" style="rounded=1;whiteSpace=wrap;html=1;fillColor=#dae8fc;strokeColor=#6c8ebf;" parent="1" vertex="1">
                    <mxGeometry x="312.5" y="210" width="95" height="40" as="geometry"/>
                </mxCell>
                <mxCell id="nlV8sNuJRkAt_AXIt324-6" value="" style="edgeStyle=none;html=1;entryX=1;entryY=0.5;entryDx=0;entryDy=0;" parent="1" source="nlV8sNuJRkAt_AXIt324-5" target="nlV8sNuJRkAt_AXIt324-2" edge="1">
                    <mxGeometry relative="1" as="geometry"/>
                </mxCell>
                <mxCell id="nlV8sNuJRkAt_AXIt324-5" value="worker_image:&amp;nbsp;&lt;font face=&quot;JetBrains Mono&quot;&gt;gx4ki/carla:latest&lt;br&gt;&lt;/font&gt;gpu: true&lt;br&gt;worker_image_result_directory: &lt;font face=&quot;JetBrains Mono&quot;&gt;/home/carla/rosbag&lt;/font&gt;&lt;br&gt;&lt;div style=&quot;color: rgb(212, 212, 212); background-color: rgb(30, 30, 30); font-family: &amp;quot;JetBrains Mono&amp;quot;, Consolas, &amp;quot;Courier New&amp;quot;, monospace, &amp;quot;Droid Sans Mono&amp;quot;, &amp;quot;monospace&amp;quot;, monospace; font-size: 13px; line-height: 18px;&quot;&gt;&lt;/div&gt;&lt;br&gt;input:&lt;br&gt;&amp;nbsp;- env-file&lt;br&gt;output:&lt;br&gt;&amp;nbsp;- rosbag.bag" style="shape=note;whiteSpace=wrap;html=1;backgroundOutline=1;darkOpacity=0.05;size=14;fillColor=#fff2cc;strokeColor=#d6b656;align=left;verticalAlign=top;" parent="1" vertex="1">
                    <mxGeometry x="470" y="215" width="332" height="130" as="geometry"/>
                </mxCell>
                <mxCell id="nlV8sNuJRkAt_AXIt324-8" style="edgeStyle=none;html=1;entryX=0.5;entryY=1;entryDx=0;entryDy=0;" parent="1" source="nlV8sNuJRkAt_AXIt324-7" target="nlV8sNuJRkAt_AXIt324-3" edge="1">
                    <mxGeometry relative="1" as="geometry"/>
                </mxCell>
                <mxCell id="nlV8sNuJRkAt_AXIt324-7" value="image: gx4ki/data-side-car:latest&amp;nbsp;&lt;br&gt;&lt;br&gt;description: has a mount to the storage in which the carla writes its result. Provides a API to store every result which is described by a Service Description&amp;nbsp;" style="shape=note;whiteSpace=wrap;html=1;backgroundOutline=1;darkOpacity=0.05;size=14;fillColor=#fff2cc;strokeColor=#d6b656;align=left;verticalAlign=top;" parent="1" vertex="1">
                    <mxGeometry x="194" y="440" width="332" height="90" as="geometry"/>
                </mxCell>
                <mxCell id="nlV8sNuJRkAt_AXIt324-10" style="edgeStyle=none;html=1;entryX=0;entryY=0.5;entryDx=0;entryDy=0;" parent="1" source="nlV8sNuJRkAt_AXIt324-9" target="nlV8sNuJRkAt_AXIt324-4" edge="1">
                    <mxGeometry relative="1" as="geometry">
                        <Array as="points">
                            <mxPoint x="226" y="230"/>
                        </Array>
                    </mxGeometry>
                </mxCell>
                <mxCell id="nlV8sNuJRkAt_AXIt324-9" value="image: TODO -- unused by carla&lt;br&gt;&lt;br&gt;description: has a mount to a shared storage with the worker image, in which it loads it's input data. The data is loaded from the user storage (or from url)&amp;nbsp;" style="shape=note;whiteSpace=wrap;html=1;backgroundOutline=1;darkOpacity=0.05;size=14;fillColor=#fff2cc;strokeColor=#d6b656;align=left;verticalAlign=top;" parent="1" vertex="1">
                    <mxGeometry x="60" y="60" width="332" height="90" as="geometry"/>
                </mxCell>
            </root>
        </mxGraphModel>
    </diagram>
</mxfile>